<?xml version="1.0" encoding="UTF-8" standalone="no"?>
<!-- Created with Inkscape (http://www.inkscape.org/) -->

<svg
   version="1.1"
   id="svg198"
   width="950"
   height="1070"
   viewBox="0 0 950 1070"
   sodipodi:docname="45logoclean.svg"
   inkscape:version="1.2.2 (b0a8486541, 2022-12-01, custom)"
   xmlns:inkscape="http://www.inkscape.org/namespaces/inkscape"
   xmlns:sodipodi="http://sodipodi.sourceforge.net/DTD/sodipodi-0.dtd"
   xmlns="http://www.w3.org/2000/svg"
   xmlns:svg="http://www.w3.org/2000/svg">
  <defs
     id="defs202" />
  <sodipodi:namedview
     id="namedview200"
     pagecolor="#ffffff"
     bordercolor="#111111"
     borderopacity="1"
     inkscape:showpageshadow="0"
     inkscape:pageopacity="0"
     inkscape:pagecheckerboard="1"
     inkscape:deskcolor="#d1d1d1"
     showgrid="false"
     inkscape:zoom="0.5"
     inkscape:cx="402"
     inkscape:cy="385"
     inkscape:window-width="1920"
     inkscape:window-height="1145"
     inkscape:window-x="0"
     inkscape:window-y="31"
     inkscape:window-maximized="1"
     inkscape:current-layer="g870" />
  <g
     id="g870"
     inkscape:groupmode="layer"
     inkscape:label="coat of arms"
     transform="translate(-276.00385,-242.46624)">
    <path
       style="display:inline;fill:#f7c800"
       d="M 737,1307.4831 C 696.97932,1296.679 646.39236,1275.4783 604.16875,1251.8144 427.30381,1152.6915 312.3494,983.89279 284.55871,782.5 281.14684,757.77495 281.02064,747.57641 281.01032,495.75 L 281,244 h 470.00384 470.00386 l -0.09,253.25 c -0.073,205.86962 -0.3442,255.77571 -1.4509,266.75 -7.636,75.71994 -28.7512,148.41017 -63.4703,218.5 -49.1317,99.1856 -120.4528,179.6752 -215.49806,243.2008 -46.14536,30.8423 -103.59992,58.9179 -153.89921,75.2039 -14.58362,4.7219 -34.37419,10.1899 -36.28085,10.0241 -0.45033,-0.039 -6.44378,-1.5897 -13.31878,-3.4457 z"
       id="path876"
       inkscape:label="shield back" />
    <path
       style="display:inline;fill:#000000;stroke:none;stroke-width:35;stroke-dasharray:none;stroke-opacity:1;paint-order:stroke fill markers"
       d="m 762.07657,1290.0646 c 66.44692,-18.7124 138.47292,-55.0595 198.76205,-100.303 77.29868,-58.0082 136.31388,-128.7151 179.19928,-214.70119 22.6243,-45.3622 39.8778,-94.22189 50.8711,-144.06041 3.6002,-16.32194 8.6453,-45.70165 9.6163,-56 0.3889,-4.125 0.8389,-8.20906 0.9999,-9.0757 2.1984,-11.83039 2.5738,-56.49642 2.2857,-271.9243 L 1203.5,261.5 H 751 298.5 L 298.20546,497 c -0.19971,159.68335 0.0503,240.7859 0.77661,251.91895 5.29963,81.23537 31.73527,170.58957 72.06398,243.58105 3.95046,7.15 8.53331,15.475 10.18411,18.5 1.6508,3.025 3.28684,5.7263 3.63564,6.0028 0.34881,0.2765 1.7181,2.5265 3.04287,5 3.10146,5.7907 20.73926,32.2853 27.95808,41.9972 29.51929,39.714 70.19046,82.3519 103.19828,108.1887 1.88923,1.4788 8.67153,6.8788 15.07177,12 55.82738,44.6708 133.10292,84.7389 202.3632,104.9273 7.15,2.0841 13.48446,3.8106 14.07657,3.8367 0.59212,0.026 5.76712,-1.2736 11.5,-2.8881 z"
       id="path1588"
       inkscape:label="black shield" />
    <path
       id="path1670"
       style="display:inline;fill:#c91518"
       inkscape:label="red half"
       d="M 1094.2578 1051.9526 C 1097.7852 1046.8844 1101.4356 1041.9216 1104.8164 1036.726 C 1111.202 1026.9125 1117.3263 1016.869 1123.1953 1006.5932 C 1129.0642 996.31738 1134.6764 985.80824 1140.0371 975.05999 C 1145.6931 963.71945 1151.0135 952.16164 1155.9843 940.42327 C 1160.9551 928.6849 1165.5781 916.76592 1169.8359 904.70843 C 1174.0937 892.65093 1177.9869 880.4536 1181.5039 868.15569 C 1185.0208 855.85778 1188.1598 843.45906 1190.9081 830.99944 C 1192.7082 822.83848 1194.8704 811.41408 1196.7031 800.74163 C 1198.5357 790.06918 1200.0398 780.14861 1200.5253 774.99944 C 1200.9142 770.87445 1201.3643 766.79186 1201.5253 765.92522 C 1202.0749 762.96763 1202.5097 757.95682 1202.8496 748.73968 C 1203.1894 739.52254 1203.4332 726.09882 1203.5996 706.31194 C 1203.9322 666.73819 1203.9545 601.71328 1203.8105 493.99944 L 1203.4999 261.49944 L 750.99994 261.49944 L 298.54291 261.49944 L 298.99994 261.95452 L 1094.1328 1051.9448 L 1094.2578 1051.9526 z " />
    <path
       style="display:inline;fill:#f7c800;font-variation-settings:normal;opacity:1;vector-effect:none;fill-opacity:1;stroke-width:1.00157;stroke-linecap:butt;stroke-linejoin:miter;stroke-miterlimit:4;stroke-dasharray:none;stroke-dashoffset:0;stroke-opacity:1;-inkscape-stroke:none;stop-color:#000000;stop-opacity:1"
       d="m 885.35938,1215.4658 c 17.49151,-9.4174 23.43453,-13.2206 37.91376,-24.2625 l 9.77313,-7.453 -3.53458,-6.4304 c -1.94403,-3.5367 -6.71658,-11.468 -10.60567,-17.6252 -8.33227,-13.1914 -29.48928,-55.6785 -36.94621,-74.1947 -9.13881,-22.6924 -15.44763,-42.7049 -18.37571,-58.2905 -1.54197,-8.2075 -1.61915,-8.3476 -7.71649,-14 -10.15929,-9.4179 -9.17108,-9.5001 -12.82234,1.0655 -9.24197,26.7432 -28.75525,58.2904 -48.74568,78.8075 l -6.41355,6.5825 8.19682,11.4175 c 15.65515,21.8063 37.71119,56.0802 67.99405,105.6589 2.4327,3.9828 4.64997,7.2453 4.92727,7.25 0.2773,0 7.63714,-3.8318 16.3552,-8.5256 z m -224.45852,-67.9997 c 51.99203,-7.9791 99.32111,-34.5538 132.57309,-74.4381 34.41852,-41.2835 52.89944,-98.5294 48.67628,-150.778 C 837.86283,869.20658 816.37576,822.24184 779.74912,785.85853 762.36672,768.59162 746.05375,757.03116 723.5,745.99666 694.25875,731.69027 669.05696,725.40634 636.5,724.30368 579.65869,722.37855 525.48305,742.84059 483.71071,782.01189 448.07235,815.43117 424.72597,861.5769 418.4521,911 c -2.41685,19.03907 -1.61527,45.31922 1.95937,64.23911 9.0551,47.92679 33.80841,91.19099 70.08853,122.50169 33.46736,28.8832 74.70296,46.6262 119,51.2037 12.08924,1.2492 38.59533,0.4869 51.40086,-1.4784 z m -38.12657,-30.9474 c -1.49914,-1.5086 -3.0175,-4.2982 -3.37412,-6.1992 -0.59029,-3.1465 11.13609,-112.72695 12.26027,-114.5695 0.25168,-0.4125 1.89354,-0.76074 3.64858,-0.77386 1.75504,-0.0131 4.80555,-0.39928 6.77892,-0.85814 l 3.58795,-0.83428 22.32665,51.10818 c 24.63807,56.3992 25.30056,58.4607 20.37028,63.3866 -4.98316,4.9787 -27.61496,9.9297 -49.87282,10.9102 l -13,0.5728 z M 581,1112.498 c -20.24408,-5.6099 -44.6014,-17.133 -46.90569,-22.1904 -1.54198,-3.3842 -1.36094,-6.8913 0.54608,-10.5791 1.4814,-2.8647 62.89678,-86.39585 65.84077,-89.55013 1.01778,-1.09048 2.39533,-0.91616 7.87618,0.99668 3.65346,1.27506 6.64315,2.7698 6.64374,3.32163 0.004,3.98529 -12.20784,108.78112 -13.01431,111.67962 -1.24346,4.469 -6.15737,8.8506 -9.8135,8.7504 -1.4703,-0.04 -6.49827,-1.1332 -11.17327,-2.4287 z m 128.60696,-18.5925 c -1.46452,-1.152 -3.51756,-3.7701 -4.56232,-5.818 -3.99144,-7.8239 -44.11861,-100.36023 -43.83888,-101.09586 0.16183,-0.42557 2.65895,-2.63501 5.54916,-4.90985 l 5.25491,-4.13607 43.74509,32.11968 c 24.05979,17.6658 45.15863,33.6714 46.8863,35.5679 6.38999,7.0145 5.12041,11.5617 -6.24748,22.3761 -9.28178,8.8298 -16.67458,14.6186 -28.54707,22.3532 -9.69666,6.3171 -13.71948,7.0985 -18.23971,3.5429 z m -204.20575,-23.984 c -8.68704,-6.9036 -25.07716,-27.1526 -32.00407,-39.539 -4.43888,-7.9375 -4.17252,-11.8806 1.08599,-16.0765 1.86746,-1.4901 26.25035,-12.635 54.18422,-24.76647 l 50.78886,-22.05726 4.3483,5.33855 c 2.39157,2.9362 4.12249,5.92703 3.84648,6.6463 -0.276,0.71926 -15.42198,21.39078 -33.65773,45.93668 -21.18242,28.5122 -34.19199,45.1647 -36.02492,46.1126 -4.46672,2.3098 -8.25935,1.8285 -12.56713,-1.5949 z m 266.9757,-38.7134 c -4.93081,-2.6968 -90.2532,-65.60712 -90.31839,-66.59403 -0.0322,-0.48726 0.95398,-3.51815 2.19148,-6.73532 1.95791,-5.09005 2.59478,-5.8513 4.90592,-5.86407 1.46076,-0.008 26.62839,2.70223 55.92808,6.02291 35.78568,4.05576 54.37703,6.56188 56.63813,7.63484 4.52302,2.14631 6.6701,6.46063 5.83682,11.72842 -1.97789,12.50382 -16.50077,47.63185 -21.94171,53.07285 -3.03024,3.0302 -8.48899,3.333 -13.24033,0.7344 z m 9.80328,-22.9581 c 4.12598,-8.91202 11.52402,-29.95228 10.74744,-30.56606 -0.2352,-0.18589 -17.75263,-2.235 -38.92763,-4.55358 -21.175,-2.31858 -39.625,-4.45103 -41,-4.73879 -2.25733,-0.4724 -2.35105,-0.37131 -0.96553,1.04138 3.04074,3.10037 63.49668,47.42525 64.78014,47.49535 0.72304,0.039 3.13755,-3.8658 5.36558,-8.6783 z M 461.5,997.09997 c -3.70638,-1.60099 -5.41352,-4.63257 -7.96089,-14.1371 -2.80691,-10.47294 -5.11779,-25.71205 -5.98421,-39.46287 -0.49183,-7.80581 -0.30723,-9.42401 1.39119,-12.19553 3.8509,-6.28397 3.80897,-6.28433 64.25115,0.55693 29.86652,3.3805 55.02431,6.14462 55.90621,6.14248 1.21208,-0.003 1.89105,1.73761 2.78175,7.13103 0.64807,3.9242 1.04255,7.27067 0.87662,7.4366 -1.44121,1.44121 -102.7507,44.53776 -105.5661,44.90729 -2.03264,0.26679 -4.59572,0.0963 -5.69572,-0.37883 z m 158.01016,-11.20929 c -13.47854,-2.74832 -27.77234,-13.69465 -33.91445,-25.97199 -4.43682,-8.86869 -5.94696,-16.33998 -5.33172,-26.37825 0.64844,-10.57989 3.06503,-17.38976 9.19805,-25.91983 8.68171,-12.07491 21.95866,-19.36941 37.03796,-20.34908 14.283,-0.92793 26.51805,3.32255 36.91423,12.82408 32.58605,29.78181 13.11709,84.28446 -30.87081,86.42171 -4.42388,0.21495 -10.28885,-0.067 -13.03326,-0.62664 z m 24.90502,-16.22322 c 7.66547,-3.50937 13.99936,-9.7328 17.83489,-17.52385 2.90861,-5.90824 3.24671,-7.49645 3.2193,-15.12258 -0.0258,-7.16233 -0.47603,-9.49535 -2.82391,-14.63142 C 659.3022,915.07613 652.58687,908.19735 645,904.31469 640.10951,901.81192 638.44721,901.5 630,901.5 c -8.20588,0 -10.276,0.36374 -15.1965,2.67018 -7.26678,3.40624 -14.22708,10.36654 -17.63332,17.63332 C 594.86374,926.724 594.5,928.79412 594.5,937 c 0,8.37089 0.33138,10.1748 2.78811,15.17757 3.99031,8.12566 12.98438,16.18333 20.98855,18.80337 8.26617,2.7058 18.4804,2.19253 26.13852,-1.31348 z m -23.66763,-16.7368 c -16.18609,-8.54478 -9.82861,-34.01818 8.55635,-34.28394 16.22888,-0.23458 24.89557,18.94763 13.88248,30.72644 -5.42953,5.80704 -15.23332,7.36135 -22.43883,3.5575 z M 632.8,939.8 c 1.85925,-1.85925 1.41761,-5.61317 -0.8,-6.8 -3.84474,-2.05764 -8.03042,2.20613 -5.96123,6.07244 1.15411,2.15647 4.92639,2.5624 6.76123,0.72756 z m 110.2,1.67735 c -29.975,-3.47091 -54.6125,-6.34823 -54.75,-6.39405 -0.1375,-0.0458 -0.26074,-1.5458 -0.27386,-3.3333 -0.0131,-1.7875 -0.40827,-4.90444 -0.87812,-6.92654 l -0.85426,-3.67654 51.12812,-22.22444 c 56.38856,-24.51105 58.51467,-25.19158 63.40659,-20.2953 4.92151,4.9259 9.90051,27.48852 10.89534,49.37282 0.53513,11.77171 0.44201,12.65822 -1.59827,15.21556 -2.02123,2.53344 -7.63739,4.90298 -11.07554,4.67291 -0.825,-0.0552 -26.025,-2.94021 -56,-6.41112 z m 54.04776,-23.47488 c -1.71656,-14.61759 -4.91751,-27.26643 -6.72464,-26.57297 -0.81287,0.31193 -8.39062,3.53253 -16.83944,7.15689 l -15.36151,6.58975 15.018,13.66193 c 14.00471,12.74013 15.33315,13.69567 19.68891,14.16193 4.57933,0.4902 4.67743,0.44122 5.00274,-2.49753 0.1825,-1.64865 -0.17033,-7.27365 -0.78406,-12.5 z m -40.14163,5.15131 C 748.17765,915.15947 744.35805,912 743.42191,912 c -1.63195,0 -27.2908,11.46477 -26.7918,11.97099 0.58982,0.59835 45.64745,5.80336 46.27602,5.34576 0.22337,-0.16262 -2.47663,-2.93595 -6,-6.16297 z M 515.5,915.9235 c -28.05,-3.2194 -52.7425,-6.35375 -54.87221,-6.96523 -2.12972,-0.61148 -5.00122,-2.24079 -6.38112,-3.62069 -2.25529,-2.25529 -2.45437,-3.0815 -1.96937,-8.17325 1.21726,-12.77923 17.63253,-52.44016 22.86309,-55.23946 3.12805,-1.67409 9.59998,-1.32308 12.69119,0.68831 1.93676,1.2602 87.70981,64.10801 89.98799,65.93618 0.17576,0.14104 -0.56879,2.43764 -1.65457,5.10354 -1.08577,2.66591 -2.22795,5.6346 -2.53818,6.5971 -0.75155,2.33174 1.06001,2.46658 -58.12682,-4.3265 z m 159.7345,-15.50642 -4.2655,-5.43484 33.49652,-45.15868 c 18.42309,-24.83728 34.74256,-45.98032 36.2655,-46.98453 1.53141,-1.0098 4.58614,-1.8288 6.83476,-1.83244 3.81333,-0.006 4.62666,0.56775 13.09886,9.24341 C 775.903,825.85428 789,844.93933 789,851.54049 c 0,7.10628 -2.55284,8.5397 -58,32.56705 -27.775,12.03595 -50.725,21.85224 -51,21.81397 -0.275,-0.0383 -2.41948,-2.51527 -4.7655,-5.50443 z m 31.37793,-21.22006 c 1.43574,-0.80348 1.34696,-1.1126 -0.74058,-2.57882 -2.30088,-1.61606 -2.45333,-1.56794 -5.09495,1.60795 -1.4977,1.80062 -2.7352,3.61739 -2.75,4.03727 -0.0255,0.72332 5.05797,-1.09228 8.58553,-3.0664 z m 38.06334,-16.39328 21.17577,-9.2032 -11.91874,-12.67199 c -6.55531,-6.9696 -12.48902,-13.14528 -13.18602,-13.72374 -0.96616,-0.80184 -4.54338,3.36213 -15.05549,17.52497 l -13.78822,18.57672 4.79847,4.30194 c 2.63915,2.36606 5.24846,4.32366 5.79846,4.35022 0.55,0.0266 10.5291,-4.09316 22.17577,-9.15492 z M 543,862.86522 c -24.475,-18.03234 -45.50929,-33.95024 -46.74286,-35.37311 -4.7763,-5.50924 -4.19892,-10.43021 2.01471,-17.1712 9.06213,-9.83126 34.83431,-29.4578 42.62219,-32.4585 3.04243,-1.17226 8.0802,0.41682 10.92651,3.44657 1.51904,1.61695 34.76446,75.67408 46.80535,104.26309 0.24833,0.58964 -2.1534,3.09868 -5.33719,5.57565 L 587.5,895.65129 Z M 572.57971,861.25 C 560.04159,832.19565 553.63947,818 553.07433,818 c -0.79752,0 -18.1779,19.17358 -18.4094,20.30877 -0.16055,0.78727 39.12819,30.44686 40.54714,30.60957 0.39164,0.0449 -0.79292,-3.40584 -2.63236,-7.66834 z m 77.85865,21.02264 c -5.48426,-2.24314 -6.02955,-2.7314 -5.72476,-5.12597 0.18528,-1.45567 3.03813,-26.6559 6.33966,-56.00052 3.91075,-34.75946 6.52304,-54.35991 7.49558,-56.24059 2.40174,-4.64447 5.73797,-6.26861 11.47975,-5.58858 11.65642,1.38053 45.26992,14.85609 52.74358,21.14477 4.05826,3.4148 4.85306,7.30892 2.54335,12.46119 -2.24699,5.01235 -66.43365,91.99248 -67.81552,91.89764 -0.55,-0.0377 -3.72774,-1.18432 -7.06164,-2.54794 z m 17.22892,-33.58013 2.6844,-3.80749 -3.5475,-3.5475 -3.5475,-3.5475 -0.65758,5.85499 c -0.36166,3.22024 -0.89461,7.65499 -1.18432,9.85499 l -0.52675,4 2.04742,-2.5 c 1.12608,-1.375 3.2554,-4.21337 4.73183,-6.30749 z m 26.17749,-35.26024 14.34478,-19.49497 -3.69856,-4.5136 c -2.0342,-2.48247 -4.66435,-5.12472 -5.84477,-5.87165 -2.94383,-1.86276 -20.34051,-8.2323 -24.68814,-9.0392 l -3.54191,-0.65736 -2.6741,23.32226 -2.6741,23.32225 6.71601,6.20372 c 3.69381,3.41205 6.94102,6.20817 7.21602,6.21362 0.275,0.005 6.95515,-8.76284 14.84477,-19.48507 z m -80.24202,65.73399 c -2.0024,-3.23996 -43.81118,-100.14977 -44.44866,-103.02889 -1.07019,-4.83337 0.33494,-9.75646 3.34817,-11.73081 6.13284,-4.01839 34.08025,-9.21602 51.26429,-9.53408 9.51706,-0.17615 10.44795,-0.0196 12.75152,2.14449 4.78928,4.4993 4.7676,5.33653 -1.62623,62.786 -3.28691,29.53337 -6.17906,54.66279 -6.427,55.84315 -0.37085,1.76553 -1.57496,2.34189 -6.78973,3.25 -7.5916,1.32202 -7.42569,1.31647 -8.07236,0.27014 z M 619.97624,827 c 1.1634,-11.275 2.3359,-21.64855 2.60556,-23.05233 0.4308,-2.24268 -1.35307,-4.22762 -14.70314,-16.36048 l -15.19342,-13.80814 -3.24441,3.86047 c -1.78443,2.12327 -3.13751,4.08548 -3.00684,4.36048 0.13067,0.275 6.94376,15.93465 15.14021,34.79923 10.41778,23.97709 15.11092,33.75777 15.59471,32.5 0.38064,-0.98958 1.64394,-11.02423 2.80733,-22.29923 z m 5.38191,-47.75 c 0.34091,-2.0625 0.62574,-5.325 0.63294,-7.25 l 0.0131,-3.5 -6.7521,0.2963 c -10.46154,0.45908 -10.49928,0.56602 -2.72119,7.71011 3.833,3.52057 7.24771,6.42186 7.58825,6.44731 0.34053,0.0254 0.89808,-1.64122 1.23899,-3.70372 z m 268.35374,256.7902 c 15.32911,-14.9587 17.92465,-21.8116 12.58256,-33.2213 C 903.8423,997.58152 899.43463,992.43503 880.5422,972.75 868.00564,959.6875 857.42245,949 857.02398,949 c -0.39847,0 -1.00712,3.9375 -1.35255,8.75 -0.34543,4.8125 -1.53098,13.7 -2.63456,19.75 -1.10357,6.05 -2.01333,11.29353 -2.02168,11.6523 -0.008,0.35876 5.54687,5.66912 12.34495,11.8008 l 12.36014,11.1485 0.59736,6.397 c 0.62085,6.6486 5.64595,27.5014 6.62727,27.5014 0.30829,0 5.15343,-4.4819 10.76698,-9.9598 z M 539,728.89134 c 12.98976,-5.61148 27.65996,-10.42378 40.86119,-13.40378 C 591.77333,712.79855 613.17521,710 621.82721,710 c 2.9367,0 5.18946,-0.39926 5.00612,-0.88724 C 626.65,708.62478 594.55,674.9883 555.5,634.36503 413.90838,487.06885 406.01951,479 403.60059,479 400.31199,479 357,519.26046 357,522.31736 c 0,1.42679 10.54155,15.01586 29.63211,38.19864 16.29767,19.7912 54.792,66.6965 85.54296,104.234 30.75097,37.5375 56.22902,68.24894 56.61789,68.24764 0.38887,-0.001 4.98204,-1.84914 10.20704,-4.1063 z M 338.80015,514.75 c 4.3,-2.35132 33.41888,-28.11417 48.31888,-42.75 12.37951,-12.16002 14.78849,-20.20272 8.3449,-27.86049 -3.74281,-4.44808 -9.63618,-6.46779 -14.56426,-4.9913 -7.35488,2.20357 -58.35969,49.97941 -62.36233,58.41434 -2.75127,5.79787 -1.65234,12.02752 2.84944,16.1531 3.0224,2.76982 4.34481,3.28435 8.44125,3.28435 3.15147,0 6.3025,-0.79021 8.97212,-2.25 z"
       id="path1076"
       sodipodi:nodetypes="sscssssssscsscsssssssssssssssssscssscsssssscscssssscssssssssscssssssssssssssssssscssssssssssssssssssssssssssssssssssssssssssscssssssssscsssssssssssssssssssscsssssssssssssscssscsssssssssscsssssssssssssssscccsscssscssscccscssssssssssssscssssssscssssssssssscscsssssssssssscsssssssss"
       inkscape:label="cannon" />
    <path
       id="path1256"
       style="display:inline;fill:#f7c800;fill-opacity:1;stroke-width:1.00157;stroke-dasharray:none"
       d="m 965.13946,834.85258 c -6.54848,-1.88443 -23.96289,-14.82297 -24.08049,-17.89129 -0.13481,-3.51738 14.34141,-9.87333 22.63201,-9.93684 8.27186,-0.0634 1.78134,-4.89925 -7.73356,-5.76203 -4.77642,-0.43311 -6.60271,-0.0912 -11.08785,2.07608 -2.95326,1.42703 -6.55308,3.5572 -7.99959,4.73372 l -2.63001,2.13912 -6.10707,-3.35567 c -3.3589,-1.84562 -5.96824,-3.78962 -5.79854,-4.32001 0.51604,-1.6129 13.76423,-8.41706 20.52098,-10.5394 8.35851,-2.62547 9.95261,-2.54038 18.80363,1.00374 10.40818,4.16764 16.27613,4.07206 25.11599,-0.40909 11.34961,-5.75341 18.62184,-13.32038 22.62694,-23.54405 2.2107,-5.64338 1.4574,-9.99862 -2.5115,-14.51896 -3.4076,-3.88102 -9.52607,-6.46178 -21.3904,-9.02247 -4.4,-0.94966 -8.99667,-2.35188 -10.21482,-3.11604 C 971.66084,740.11579 970,740.63201 970,744.03212 970,747.12455 967.58795,754 966.50306,754 c -0.32945,0 -1.73299,-1.2375 -3.11899,-2.75 -1.38601,-1.5125 -2.7206,-2.28145 -2.96578,-1.70878 -2.06409,4.82125 -4.60051,8.08725 -7.47995,9.63151 -6.74219,3.61588 -19.40147,1.28725 -23.30584,-4.28702 -1.8395,-2.62626 -2.14735,-4.32194 -0.61242,-3.3733 0.56105,0.34675 3.55618,0.63045 6.65585,0.63045 6.45912,0 9.82407,-2.38221 10.88789,-7.70806 0.52368,-2.62172 -0.0442,-3.83429 -3.92505,-8.38081 -2.49553,-2.92358 -4.81977,-6.60158 -5.16498,-8.17333 -0.34522,-1.57175 -0.99934,-3.08743 -1.4536,-3.36818 -0.45427,-0.28076 -3.23215,0.60969 -6.17307,1.97876 -2.94092,1.36907 -6.47212,2.49111 -7.84712,2.49341 -4.74557,0.008 -10.20052,-2.1415 -13.79532,-5.43589 l -3.60647,-3.30508 3.97024,-0.67077 c 2.18363,-0.36892 5.73646,-1.6615 7.89517,-2.8724 8.95081,-5.02081 10.27747,-14.27701 4.14849,-28.94418 -8.26143,-19.77026 -8.54954,-32.58077 -1.24496,-55.35458 5.50755,-17.1711 6.57998,-26.15614 4.22098,-35.36421 -2.12085,-8.27848 -5.78425,-13.26705 -9.43272,-12.84483 -3.95535,0.45772 -3.82577,3.22898 0.77664,16.60974 3.89612,11.32733 4.84833,17.68367 3.43766,22.94755 -0.33163,1.2375 -0.88799,2.24445 -1.23634,2.23768 -0.34835,-0.007 -1.90814,-3.16131 -3.46619,-7.01007 -4.10604,-10.14292 -9.81516,-18.1508 -15.91981,-22.3299 -7.32881,-5.01712 -14.04115,-6.54844 -26.24737,-5.98794 -11.0447,0.50716 -31.85493,-0.977 -37.83961,-2.69868 l -3.83961,-1.10458 6.10102,-6.35358 c 6.96011,-7.24824 11.05417,-15.08299 11.06843,-21.1815 0.0169,-7.2324 -5.25582,-10.15413 -6.44521,-3.57143 -1.25389,6.93967 -8.36552,19.6611 -18.51969,33.12845 -11.66196,15.4671 -17.09375,24.40003 -21.65839,35.61862 -4.62895,11.37662 -5.38289,15.42604 -3.747,20.12518 C 799.26167,652.21068 797.80775,654 789,654 c -6.14107,0 -8.19553,0.99373 -13.64873,6.60181 -2.6201,2.69451 -5.66416,4.67463 -8.2616,5.37404 -8.00924,2.15667 -14.79468,-2.9939 -27.47042,-20.85176 -7.59804,-10.70427 -7.56132,-11.21294 0.98898,-13.69858 5.02908,-1.46199 5.77644,-1.43265 12.58512,0.49416 11.67021,3.30257 11.63135,-0.38764 -0.0628,-5.96008 -6.65009,-3.16888 -12.62967,-3.51957 -19.3858,-1.13694 l -5.75522,2.02965 -4.49478,-5.51782 C 721.02265,618.29968 719,615.47728 719,615.06247 c 0,-1.22856 14.99942,-5.25515 21.6318,-5.80706 5.17239,-0.43042 7.02975,-0.0992 11.87084,2.11717 3.15648,1.44508 6.14458,2.62742 6.64023,2.62742 1.32745,0 6.72459,-8.87539 7.88432,-12.96548 1.55735,-5.49239 3.96085,-32.70127 4.08857,-46.28478 0.11254,-11.96907 -0.62246,-16.89116 -3.8048,-25.47964 -1.44284,-3.89394 -1.43294,-4.43499 0.12459,-6.81209 0.93056,-1.4202 2.20489,-2.4112 2.83185,-2.20221 0.62696,0.20899 1.68555,3.33633 2.35244,6.94965 1.95658,10.6012 5.78401,16.79455 10.37886,16.79455 3.87838,0 14.13573,-7.26738 21.53059,-15.25451 l 6.3692,-6.87932 2.46146,4.81692 c 3.02386,5.91748 7.87078,10.6861 13.06289,12.85187 4.20102,1.75235 16.25783,2.18437 17.80424,0.63796 0.53163,-0.53163 -0.14813,-2.44135 -1.66418,-4.67537 -1.40959,-2.07715 -2.56122,-4.95135 -2.55916,-6.3871 0.005,-3.45277 3.0313,-8.27018 6.28415,-10.00322 2.52542,-1.34549 2.79409,-1.20348 7.91314,4.18243 8.39966,8.83755 12.29903,8.84513 21.80706,0.0424 l 6.10803,-5.65495 -0.21744,6.71638 c -0.30487,9.41741 0.71064,10.29446 10.12024,8.7405 7.56742,-1.24973 14.72397,-4.36384 19.75264,-8.59518 l 3.05666,-2.57202 1.69593,5.26663 c 5.72333,17.77362 18.1854,33.20405 36.97585,45.78323 6.24192,4.17862 19.55888,16.96004 24.09938,23.13023 l 3.4195,4.64684 8.24056,-0.0555 c 4.53231,-0.0306 10.94056,0.53161 14.24056,1.24924 3.3,0.71763 10.05,1.33998 15,1.383 7.5743,0.0658 9.7128,-0.29156 13.5,-2.2561 6.1499,-3.19017 9.7114,-6.70239 12.7914,-12.61428 2.1585,-4.14312 2.5937,-6.28531 2.5393,-12.5 -0.1321,-15.07771 -7.7596,-27.49843 -23.0231,-37.49102 -5.0482,-3.30494 -12.0201,-7.57257 -15.4931,-9.48362 -8.93394,-4.91601 -22.3559,-18.6071 -26.9843,-27.52536 -10.81784,-20.84438 -10.82642,-40.37457 -0.0251,-57.07213 7.11493,-10.99882 19.0832,-19.48942 31.7264,-22.5075 6.7099,-1.60175 23.5964,-1.60046 30.9685,0.002 3.3,0.71748 10.8742,2.82838 16.8315,4.69089 5.9574,1.86251 12.0656,3.38638 13.5738,3.38638 1.5082,0 6.5009,-1.125 11.0947,-2.5 9.5137,-2.84757 14.6602,-3.1085 21.3862,-1.0843 10.5685,3.18067 15.8154,9.9243 18.6378,23.95462 2.7387,13.61469 5.055,16.62968 12.7754,16.62968 8.1909,0 12.1094,-6.90967 10.3839,-18.31042 l -0.9331,-6.16468 3.3933,3.92539 c 8.0186,9.27623 11.0108,21.51759 6.678,27.32085 -3.0647,4.10484 -6.6502,6.32914 -11.1825,6.93704 -2.3032,0.30893 -4.4366,0.96438 -4.7408,1.45655 -0.3042,0.49218 0.8096,2.44683 2.475,4.34368 4.0835,4.65076 4.7877,9.22618 2.757,17.9106 -3.3739,14.42824 -1.6866,21.34144 6.0432,24.76071 5.2364,2.31631 9.6879,1.89714 13.7451,-1.2943 5.9802,-4.704 7.0201,-11.25342 3.1177,-19.63542 -1.3443,-2.8875 -2.2175,-5.25 -1.9405,-5.25 1.4394,0 6.2396,3.17427 8.674,5.736 3.4297,3.60911 4.7368,7.98336 4.7083,15.7574 -0.041,11.3017 -5.0727,17.76799 -16.3613,21.02735 -7.1256,2.05737 -15.8432,1.4674 -24.3475,-1.64773 -4.3947,-1.60976 -7.3182,-3.69283 -12.2708,-8.74314 -7.6059,-7.75601 -11.4143,-14.81256 -13.5674,-25.13861 -0.8542,-4.09677 -2.0212,-7.73799 -2.5933,-8.09161 -0.5722,-0.35361 -3.1323,0.004 -5.689,0.79472 -2.5568,0.79071 -6.53,1.24174 -8.8294,1.00229 -4.5506,-0.4739 -6.3172,0.57476 -6.323,3.75333 -0.01,3.5035 -3.7272,8.36876 -8.2071,10.73157 -5.3804,2.83778 -15.7588,2.99644 -23.6715,0.36188 -5.9693,-1.98751 -15.0596,-9.82712 -15.201,-13.10961 -0.046,-1.06361 -0.1971,-2.96539 -0.336,-4.22618 -0.3655,-3.31603 0.7913,-3.50703 3.5239,-0.58183 3.4989,3.74546 7.2135,5.37417 12.2568,5.37417 3.7535,0 4.8713,-0.48782 7.0497,-3.07673 1.7958,-2.13416 2.5889,-4.24622 2.5889,-6.89424 0,-4.08416 -0.7635,-5.09535 -10.7643,-14.25581 -2.8382,-2.59973 -5.8981,-6.15354 -6.7999,-7.89736 -2.1606,-4.17814 -2.1704,-11.14821 -0.025,-17.60828 0.9541,-2.87245 1.4589,-5.66885 1.1219,-6.21422 -1.4363,-2.32401 -17.0354,-6.26974 -25.033,-6.33201 -10.5286,-0.082 -16.6976,2.52609 -23.4495,9.91379 -13.31025,14.56351 -11.60797,32.19596 4.786,49.57445 7.4001,7.84449 13.789,12.64117 29.1635,21.89545 23.2582,13.99967 34.2729,31.25057 35.7114,55.92965 0.8235,14.12897 -2.5781,24.52056 -11.0324,33.70301 -5.6941,6.18452 -12.6333,10.67801 -21.4629,13.89832 -4.0747,1.48615 -7.6419,3.30995 -7.927,4.05288 -0.2851,0.74294 0.4333,3.56279 1.5963,6.26633 2.446,5.68594 2.7628,13.59826 0.7338,18.32689 -1.9301,4.49827 -7.4117,9.34496 -11.9543,10.56967 -3.3838,0.91231 -3.7611,0.8412 -3.2064,-0.60435 3.1233,-8.13913 3.6476,-11.13984 2.6157,-14.97186 -1.037,-3.85107 -5.0523,-9.27558 -6.8659,-9.27558 -0.488,0 -1.389,1.1012 -2.0022,2.44711 -2.3961,5.25875 -9.2061,7.13368 -9.2061,2.53461 0,-3.28933 -2.6122,-7.48399 -5.4721,-8.78703 -3.43158,-1.56355 -10.0194,-1.5312 -11.26226,0.0553 -0.64305,0.82086 -0.55531,4.68314 0.25556,11.25 0.67913,5.5 1.30971,17.16288 1.40129,25.9175 0.0916,8.75463 0.36742,16.24258 0.61298,16.6399 0.24556,0.39732 4.16303,0.49822 8.70553,0.22421 4.5424,-0.27401 10.7052,-0.0457 13.6949,0.50737 6.67,1.23385 7.4648,0.95031 10.1992,-3.6382 11.4535,-19.22004 34.1432,-22.1734 45.8796,-5.97182 1.6496,2.27722 2.8365,4.30314 2.6376,4.50205 -0.1989,0.19891 -2.7895,-0.76855 -5.757,-2.14991 -9.7156,-4.52271 -17.233,-2.58003 -21.4312,5.53836 -3.9704,7.67796 1.7208,15.93054 10.9862,15.93054 3.1013,0 3.5497,0.30978 3.5497,2.45249 0,1.34887 -1.7887,5.84887 -3.975,10 -3.0824,5.85271 -3.6213,7.54751 -2.4,7.54751 1.6979,0 7.3347,-5.24497 9.1261,-8.49167 1.4475,-2.62344 2.0465,-1.85323 3.164,4.06794 1.3342,7.06994 -0.9121,17.55295 -4.6452,21.67803 -2.715,3.00003 -0.4152,3.25908 2.6724,0.30101 l 2.9214,-2.79889 0.6875,3.66493 c 0.7971,4.24861 -1.5011,11.31836 -4.5871,14.11117 -2.7361,2.47612 -2.5032,3.15183 1.8528,5.37407 4.2727,2.17979 5.6255,3.57264 6.6191,6.81515 0.6204,2.02463 0.3614,2.20974 -2.9199,2.08638 -5.288,-0.19879 -8.1384,2.46826 -16.0378,15.00607 -3.8619,6.12962 -9.0369,13.19956 -11.5,15.71097 -8.2877,8.45036 -23.9963,17.9963 -40.9513,24.88573 -4.3461,1.76598 -8.23475,2.58911 -12.23154,2.58911 -3.22284,0 -7.47521,0.675 -9.44971,1.5 -4.01788,1.67878 -8.20886,1.79067 -13.2063,0.35258 z M 827.10078,755.03412 c -8.07796,-2.73466 -16.08489,-8.09984 -24.81513,-16.62778 C 795.30379,731.58625 794,729.80716 794,727.10011 c 0,-2.85546 0.51045,-3.43837 4.59203,-5.24385 3.77823,-1.67129 5.67904,-1.90511 10.72567,-1.31939 5.81255,0.67462 6.05639,0.61834 4.65797,-1.07501 -0.81162,-0.98279 -3.39183,-2.63644 -5.73381,-3.67477 -3.87381,-1.71749 -4.98158,-1.77714 -12.2734,-0.66088 -8.86641,1.35729 -9.91938,0.97585 -10.25826,-3.71601 L 785.5,708.5 797,708.1918 c 14.80378,-0.39674 17.80428,0.5071 23.22182,6.99513 7.33854,8.78862 8.69823,9.81307 13.0242,9.81307 6.85417,0 12.71006,-8.03243 12.75803,-17.5 0.022,-4.33665 -5.15215,-20.34285 -6.7776,-20.9666 -0.75796,-0.29086 -3.48149,0.70764 -6.05228,2.21889 -4.04931,2.38039 -5.74698,2.74771 -12.69921,2.74771 -5.801,0 -9.22209,-0.53887 -12.34436,-1.94442 -3.93108,-1.76966 -4.15883,-2.06177 -2.53382,-3.25 0.98201,-0.71807 2.84682,-1.30558 4.14401,-1.30558 3.20898,0 8.47836,-2.84076 7.99222,-4.30866 -0.21701,-0.65524 -2.8757,-1.46205 -5.90822,-1.79291 -6.89026,-0.75176 -11.03621,-3.15062 -13.73053,-7.94451 -3.82974,-6.81411 -2.57383,-8.30572 4.50345,-5.34865 8.84796,3.69692 16.6255,-0.24043 20.39941,-10.32711 2.6384,-7.05178 2.54692,-7.89286 -0.99273,-9.12678 -2.72934,-0.95146 -2.90631,-1.27916 -1.99097,-3.68669 1.83196,-4.8184 9.6694,-15.89577 14.61379,-20.65499 6.12413,-5.89479 14.69482,-11.06344 23.24747,-14.01966 5.87484,-2.03064 8.51604,-2.29004 23.31691,-2.29004 h 16.6916 l 3.6477,3.5 c 7.3286,7.03186 11.18605,18.9516 9.97464,30.82224 -0.66096,6.4768 -1.855,10.17192 -3.29071,10.18355 -4.22219,0.0342 -12.91397,2.35586 -15.37168,4.1059 -6.61224,4.70833 -9.42019,16.42299 -7.46372,31.13831 0.92862,6.98446 2.37926,7.36801 7.81006,2.06498 2.07559,-2.02677 4.08609,-3.37275 4.46776,-2.99107 0.38168,0.38168 0.89453,5.56199 1.13968,11.51181 0.34126,8.28277 0.0457,12.19365 -1.26102,16.68878 -2.85627,9.82523 -7.37602,17.52252 -14.43245,24.57895 -10.07525,10.07525 -22.26515,15.3829 -41.87081,18.23114 -8.26828,1.20118 -9.79178,1.16879 -14.13186,-0.30047 z M 782.25411,531.33909 c -2.03937,-0.82337 -4.46795,-10.98523 -4.09599,-17.13869 0.44559,-7.37137 -0.98298,-7.6775 -8.75159,-1.87536 -9.28786,6.9368 -11.96125,7.99204 -21.45879,8.47016 -7.26322,0.36564 -9.34012,0.0916 -13.77943,-1.81814 -13.41296,-5.7701 -21.03145,-23.51298 -14.50848,-33.78915 2.28844,-3.60516 3.66907,-2.11916 3.75856,4.04544 0.0971,6.69057 2.32784,10.33224 8.07662,13.18523 3.37321,1.67405 4.53843,1.77752 9.1423,0.81185 6.51715,-1.36698 9.98653,-3.8716 15.88594,-11.46834 2.79618,-3.60069 5.99671,-6.49922 8.18674,-7.41428 l 3.59577,-1.5024 -5.08198,-2.90244 c -7.51332,-4.29104 -9.40853,-7.92472 -7.61683,-14.60374 l 0.57964,-2.16077 5.15671,2.401 c 9.03062,4.20473 15.09505,3.01912 25.82882,-5.0496 5.64896,-4.2464 18.8553,-9.52986 23.82048,-9.52986 1.03915,0 2.16748,-0.45 2.5074,-1 0.38181,-0.61777 -1.41121,-1.00839 -4.69098,-1.02196 -5.05828,-0.0209 -12.85548,-2.62616 -14.15555,-4.72972 -0.34707,-0.56156 2.49391,-1.2209 6.84574,-1.58876 4.09145,-0.34586 11.61541,-1.56326 16.7199,-2.70533 17.74813,-3.97096 32.14026,-3.19549 45.56558,2.45515 11.05455,4.65279 23.76111,4.41896 27.43731,-0.50491 2.42358,-3.24612 2.54762,-9.79303 0.25894,-13.66745 -4.6471,-7.86691 -17.60776,-9.20841 -25.42394,-2.63153 l -3.03394,2.55289 -5.55031,-2.71551 C 850.5978,422.07927 849,419.87348 849,413.74611 c 0,-6.02744 1.04758,-6.4967 9.43497,-4.22634 7.97354,2.15834 21.39954,1.70376 26.35925,-0.89246 4.87612,-2.55247 7.1976,-7.03598 7.20204,-13.90943 0.008,-12.3536 -4.5672,-16.71945 -17.49626,-16.69572 -4.4,0.008 -11.75626,0.67899 -16.34724,1.49091 -15.49345,2.74004 -21.91374,-1.58825 -23.57561,-15.89369 -0.40002,-3.44333 -1.3047,-5.56431 -3.07207,-7.20225 -4.53693,-4.20468 -2.80559,-6.76772 6.99492,-10.35516 6.46611,-2.36689 11.99256,-6.90401 12.92249,-10.60915 0.31838,-1.26854 1.33108,-2.45187 2.25044,-2.62963 2.39312,-0.4627 51.21767,3.73408 51.94894,4.46535 0.33515,0.33515 0.10734,2.04949 -0.50625,3.80964 -1.29232,3.70714 -1.4797,8.90182 -0.32111,8.90182 0.43699,0 2.48033,-2.21058 4.54076,-4.9124 4.2354,-5.55382 9.04074,-9.51111 14.133,-11.63879 C 933.43466,329.28459 946,335.33618 946,344.3003 c 0,4.95551 -8.85193,13.93981 -19,19.28414 l -3.5,1.84322 7.47224,0.78113 c 9.46556,0.98952 11.36447,2.70791 13.58241,12.29121 2.80036,12.09982 3.86006,14.75567 6.73772,16.88629 2.74052,2.02909 2.87976,2.03423 7.5,0.27682 2.5892,-0.98486 5.38241,-1.87446 6.20715,-1.97688 2.14891,-0.26688 2.41135,3.61856 0.49474,7.32486 -2.0021,3.87165 -6.76138,5.98891 -13.46214,5.98891 -2.76767,0 -5.05749,0.1125 -5.08849,0.25 -0.85769,3.80397 -0.85217,17.87357 0.009,22.02005 1.57983,7.61 4.86765,11.09851 9.84331,10.44416 2.03744,-0.26794 4.69652,-0.8104 5.90908,-1.20546 1.78255,-0.58077 2.31868,-0.264 2.80019,1.6545 0.88525,3.52714 -1.616,9.85797 -4.83642,12.24124 -2.29987,1.70202 -4.07649,2.05476 -9.46136,1.87849 -7.4998,-0.2455 -8.15813,0.25279 -8.21371,6.21702 -0.0433,4.64625 -2.77259,11.15853 -6.85313,16.35205 -6.90803,8.79221 -8.21279,16.80265 -3.50386,21.51159 3.19268,3.19268 6.48501,3.3425 11.07764,0.5041 3.05803,-1.88996 3.61954,-1.96277 4.9416,-0.64071 2.2494,2.2494 3.30131,8.34515 2.15592,12.49341 -3.61868,13.10577 -23.18518,14.75221 -31.34902,2.63789 -1.14681,-1.70174 -2.6902,-5.74103 -3.42976,-8.9762 L 914.68809,498.5 913.50575,503 c -0.65028,2.475 -1.94012,5.95954 -2.86632,7.74343 -1.91738,3.69294 -14.88648,12.75948 -17.05907,11.92578 -0.76326,-0.29289 -2.83071,-3.46359 -4.59432,-7.046 -2.43146,-4.939 -3.1131,-7.49365 -2.81988,-10.56835 0.21268,-2.23017 0.22717,-4.05486 0.0322,-4.05486 -0.19497,0 -3.64606,3.4875 -7.66908,7.75 -4.02303,4.2625 -8.65978,8.53156 -10.30388,9.48679 -2.8919,1.68022 -3.07851,1.6666 -5.72852,-0.4179 C 858.60072,514.75416 857,510.13058 857,501.94142 v -7.12281 l -4.25,6.31235 c -2.3375,3.47179 -6.725,8.24951 -9.75,10.61715 -8.77285,6.86645 -11.05576,9.28067 -11.66731,12.33843 -0.90763,4.53816 -2.914,5.60723 -6.12887,3.26569 C 820.66052,524.04314 818,517.54475 818,509.75673 c 0,-4.96675 -0.38558,-6.96746 -1.41921,-7.3641 -2.55811,-0.98164 -6.5843,2.76268 -10.7494,9.99685 -4.86212,8.44479 -8.75085,12.85019 -14.77717,16.74052 -4.31077,2.78284 -6.20269,3.25777 -8.80011,2.20909 z M 921.01237,357.42416 c 13.69194,-7.19491 18.14579,-13.30875 12.42562,-17.05675 -2.36612,-1.55034 -2.81941,-1.55595 -5.92834,-0.0734 -2.12289,1.01233 -4.36262,3.37841 -6.06358,6.40564 -1.48348,2.64019 -3.97214,6.93785 -5.53035,9.55035 -1.55821,2.6125 -2.58,4.75 -2.27065,4.75 0.30936,0 3.62464,-1.60913 7.3673,-3.57584 z m -43.44603,-0.51811 c 8.99498,-1.65836 9.19151,-2.05167 3.11593,-6.23607 -2.96354,-2.04108 -6.60318,-5.07459 -8.08809,-6.74114 -3.11638,-3.49761 -5.69888,-3.30201 -9.34418,0.70774 -3.19738,3.51705 -3.0238,8.60959 0.38486,11.29084 2.99339,2.3546 5.50946,2.53135 13.93148,0.97863 z m -119.4835,99.19075 c -5.72818,-2.32315 -7.69086,-4.87718 -9.12783,-11.87804 -1.79792,-8.75937 -5.68111,-20.45561 -9.49559,-28.60093 -1.89544,-4.04747 -4.29835,-11.59484 -5.33979,-16.77194 -1.04145,-5.17711 -3.51941,-13.34061 -5.50658,-18.14112 -4.27476,-10.32671 -4.70126,-17.22873 -1.61835,-26.18937 2.6647,-7.74509 3.51977,-8.69375 6.57948,-7.29965 2.40698,1.0967 8.42582,9.39852 8.42582,11.6218 0,1.73609 2.69364,1.40319 3.39301,-0.41934 0.33385,-0.86998 0.60699,-3.69052 0.60699,-6.26786 0,-5.74248 -3.32071,-11.12559 -8.32924,-13.50229 -4.11032,-1.95048 -5.17139,-5.07516 -3.64647,-10.73827 1.36424,-5.06641 4.13015,-7.94367 6.93191,-7.21099 1.15755,0.3027 4.27983,2.50606 6.93841,4.89635 8.84817,7.95527 11.13583,17.62525 10.31814,43.61501 -0.49278,15.66272 0.47294,21.32528 5.1585,30.24743 4.59466,8.74906 19.09748,23.0704 29.42547,29.05725 9.46601,5.48719 9.31084,6.44635 -1.04672,6.46985 L 785,435 v 5.28811 c 0,6.91481 -3.26888,13.41944 -7.9844,15.8879 -4.46617,2.33792 -13.06154,2.30196 -18.93276,-0.0792 z m 43.2725,-44.54338 c -15.29293,-6.6542 -19.3383,-26.75753 -7.20698,-35.81487 2.89541,-2.16173 9.4848,-3.29842 13.40998,-2.31326 2.67375,0.67106 2.66998,0.67823 -1.86849,3.55645 -6.85687,4.3485 -8.22747,8.40245 -5.25003,15.52848 3.75133,8.97818 13.85581,9.85947 33.2625,2.9011 7.03872,-2.52377 15.27268,-5.27368 18.29768,-6.1109 11.74619,-3.25095 35.04831,1.02061 35.83466,6.56894 0.51374,3.62476 -1.02342,4.36755 -5.32174,2.57159 -6.38243,-2.66675 -14.95778,-3.62962 -21.59939,-2.42527 -3.27635,0.59412 -11.23471,3.56766 -17.68526,6.60787 -16.35555,7.70856 -24.74458,10.38472 -32.40459,10.33731 -3.47802,-0.0215 -7.73878,-0.65487 -9.46834,-1.40744 z M 900,328.94995 c -3.025,-0.4403 -12.925,-1.34319 -22,-2.00642 -9.075,-0.66323 -17.175,-1.33742 -18,-1.49819 -0.825,-0.16077 -2.43307,-0.32675 -3.57349,-0.36883 -1.40435,-0.0518 -3.62411,-2.34592 -6.8785,-7.1089 -2.64276,-3.86781 -7.44719,-9.42341 -10.67651,-12.34578 -3.22933,-2.92237 -5.8715,-5.6078 -5.8715,-5.96761 0,-1.27857 16.65286,-0.62968 22.03207,0.85849 11.34451,3.13848 11.2657,3.14683 14.35483,-1.52117 C 873.63215,292.57653 884.90681,282 887.5,282 c 2.82965,0 14.25704,11.02291 17.93677,17.30189 2.86089,4.88174 5.20279,6.26467 8.71897,5.14868 3.11134,-0.9875 19.9144,-0.76624 22.74241,0.29947 l 2.39815,0.90371 -3.43896,2.1254 c -4.02166,2.48553 -10.34332,8.85842 -15.09181,15.21412 -5.25943,7.03959 -7.97457,7.81844 -20.76553,5.95668 z"
       inkscape:label="lion" />
  </g>
</svg>
